<svg display="none" xmlns="http://www.w3.org/2000/svg">
  <symbol id="facebook" viewBox="0 0 20 20">
    <path
      clip-rule="evenodd"
      d="M14.6234 1.00375L12.2249 1C9.5302 1 7.78878 2.73871 7.78878 5.42982V7.47227H5.37715C5.16875 7.47227 5 7.63668 5 7.83949V10.7988C5 11.0016 5.16895 11.1658 5.37715 11.1658H7.78878V18.633C7.78878 18.8358 7.95753 19 8.16593 19H11.3124C11.5208 19 11.6896 18.8356 11.6896 18.633V11.1658H14.5093C14.7177 11.1658 14.8865 11.0016 14.8865 10.7988L14.8876 7.83949C14.8876 7.74211 14.8478 7.64886 14.7772 7.57994C14.7066 7.51103 14.6103 7.47227 14.5103 7.47227H11.6896V5.74086C11.6896 4.90868 11.8933 4.48622 13.0073 4.48622L14.623 4.48566C14.8312 4.48566 15 4.32124 15 4.11863V1.37077C15 1.16835 14.8314 1.00412 14.6234 1.00375Z"
    />
  </symbol>
</svg>

<svg display="none" xmlns="http://www.w3.org/2000/svg">
  <symbol id="twitter" viewBox="0 0 20 20">
    <path
      fill-rule="evenodd"
      clip-rule="evenodd"
      d="M18.979 4.36284C18.9532 4.33213 18.9106 4.32171 18.8743 4.33846C18.3361 4.57945 17.77 4.7527 17.1869 4.85505C17.8059 4.38498 18.2672 3.73403 18.5037 2.98761C18.5151 2.95188 18.5033 2.9128 18.4744 2.88954C18.4453 2.86628 18.4049 2.8633 18.373 2.88247C17.6758 3.29987 16.9206 3.59409 16.1276 3.75729C15.4248 3.0211 14.4435 2.59998 13.4278 2.59998C11.3623 2.59998 9.68211 4.29603 9.68211 6.38083C9.68211 6.63299 9.70626 6.88273 9.75419 7.12521C6.89336 6.94693 4.21836 5.56053 2.3995 3.30862C2.38088 3.28554 2.35268 3.2727 2.32318 3.27568C2.29387 3.27791 2.26769 3.29466 2.25294 3.32016C1.9211 3.89481 1.74578 4.55228 1.74578 5.2211C1.74578 6.38027 2.2675 7.46408 3.15591 8.17924C2.69853 8.12378 2.25183 7.97844 1.84902 7.75271C1.82192 7.73727 1.78818 7.73745 1.76108 7.75327C1.73398 7.7689 1.71683 7.79793 1.7161 7.82957L1.71573 7.87795C1.71573 9.54274 2.8025 11.0045 4.3487 11.4898C3.94145 11.5561 3.51891 11.5516 3.10356 11.4716C3.07295 11.4658 3.04088 11.4764 3.01986 11.5003C2.99903 11.5241 2.99202 11.5574 3.00161 11.5875C3.46526 13.0484 4.75354 14.0728 6.25309 14.2005C5.00224 15.1255 3.5237 15.6129 1.96147 15.6129C1.67369 15.6129 1.38389 15.5956 1.09998 15.5619C1.05942 15.5573 1.01923 15.5817 1.00522 15.6209C0.991209 15.6606 1.00614 15.7049 1.04117 15.7274C2.73171 16.8218 4.68643 17.4 6.69425 17.4C13.2619 17.4 17.1865 12.0148 17.1865 6.80866C17.1865 6.66369 17.1837 6.51947 17.178 6.37562C17.8865 5.85251 18.4947 5.21217 18.9851 4.47096C19.007 4.43783 19.0046 4.39373 18.979 4.36284Z"
    />
  </symbol>
</svg>

<svg display="none" xmlns="http://www.w3.org/2000/svg">
  <symbol id="youtube" viewBox="0 0 20 20">
    <path
      fill-rule="evenodd"
      clip-rule="evenodd"
      d="M10 2.80005C7.102 2.80005 3.3406 3.5294 3.3406 3.5294L3.33113 3.54026C2.01123 3.7523 1 4.89153 1 6.27701V13.7217C1.00266 15.09 1.99367 16.2524 3.33789 16.4653L3.3406 16.4693C3.3406 16.4693 7.102 17.2 10 17.2C12.898 17.2 16.6594 16.4693 16.6594 16.4693C18.0065 16.2555 18.9986 15.0914 19 13.7231V6.27701C18.998 4.90961 18.0068 3.74646 16.6621 3.53347C16.6594 3.5294 12.898 2.80005 10 2.80005ZM8.2 6.85005L13.6 10L8.2 13.15V6.85005Z"
    />
  </symbol>
</svg>

<svg display="none" xmlns="http://www.w3.org/2000/svg">
  <symbol id="close" viewBox="0 0 17 16">
    <path
      d="M10.4144 7.99995L16.6575 1.76968C17.0638 1.36443 17.0638 0.709193 16.6575 0.30394C16.2514 -0.101313 15.5948 -0.101313 15.1887 0.30394L8.94539 6.53421L2.70225 0.30394C2.29595 -0.101313 1.63953 -0.101313 1.23343 0.30394C0.827138 0.709193 0.827138 1.36443 1.23343 1.76968L7.47657 7.99995L1.23343 14.2302C0.827138 14.6355 0.827138 15.2907 1.23343 15.696C1.43582 15.8981 1.70192 15.9997 1.96784 15.9997C2.23376 15.9997 2.49967 15.8981 2.70225 15.696L8.94539 9.4657L15.1887 15.696C15.3913 15.8981 15.6572 15.9997 15.9231 15.9997C16.189 15.9997 16.455 15.8981 16.6575 15.696C17.0638 15.2907 17.0638 14.6355 16.6575 14.2302L10.4144 7.99995Z"
    />
  </symbol>
</svg>

<svg display="none" xmlns="http://www.w3.org/2000/svg">
  <symbol id="UNV" viewBox="0 0 40 18">
    <path
      d="M1.87961 15.1313C2.50776 15.1313 3.06746 15.0246 3.55871 14.8112C4.05801 14.5978 4.47677 14.2982 4.81501 13.9124C5.15324 13.5267 5.41095 13.0588 5.58812 12.5089C5.77334 11.959 5.86595 11.3434 5.86595 10.6621V0H9.11543V10.6621C9.11543 11.7209 8.94631 12.7018 8.60807 13.6046C8.27789 14.4993 7.79873 15.275 7.17058 15.9316C6.55048 16.58 5.79348 17.0889 4.89957 17.4583C4.00566 17.8194 2.99901 18 1.87961 18C0.75216 18 -0.258519 17.8194 -1.15243 17.4583C-2.04633 17.0889 -2.80736 16.58 -3.43551 15.9316C-4.05561 15.275 -4.53478 14.4993 -4.87301 13.6046C-5.2032 12.7018 -5.36829 11.7209 -5.36829 10.6621V0H-2.11881V10.6498C-2.11881 11.3311 -2.03023 11.9466 -1.85306 12.4966C-1.66783 13.0465 -1.4061 13.5185 -1.06787 13.9124C-0.721579 14.2982 -0.302812 14.5978 0.188435 14.8112C0.687734 15.0246 1.25146 15.1313 1.87961 15.1313Z"
      fill="#4592FF"
    />
    <path
      d="M27.5055 0V17.803H25.8384C25.5807 17.803 25.3633 17.762 25.1861 17.6799C25.017 17.5896 24.8519 17.4419 24.6909 17.2367L15.5706 5.36799C15.6189 5.90971 15.6431 6.4104 15.6431 6.87004V17.803H12.7801V0H14.4834C14.6203 0 14.7371 0.00820777 14.8337 0.0246234C14.9384 0.0328317 15.027 0.057456 15.0995 0.0984956C15.18 0.131328 15.2565 0.184679 15.329 0.25855C15.4015 0.324214 15.482 0.414501 15.5706 0.529412L24.7271 12.4473C24.7029 12.1601 24.6828 11.8769 24.6667 11.5978C24.6506 11.3187 24.6425 11.0602 24.6425 10.8222V0H27.5055Z"
      fill="#4592FF"
    />
    <path
      d="M46.3623 0L39.3076 17.803H36.3722L29.3176 0H31.9269C32.2087 0 32.4382 0.0697678 32.6154 0.209303C32.7926 0.348838 32.9255 0.529412 33.014 0.751026L37.1333 11.6101C37.2702 11.9631 37.399 12.3529 37.5198 12.7798C37.6487 13.1984 37.7695 13.6375 37.8822 14.0971C37.9789 13.6375 38.0835 13.1984 38.1963 12.7798C38.309 12.3529 38.4339 11.9631 38.5708 11.6101L42.6658 0.751026C42.7303 0.562243 42.8551 0.389877 43.0403 0.233927C43.2336 0.0779756 43.4671 0 43.7409 0H46.3623Z"
      fill="#4592FF"
    />
  </symbol>
</svg>

<svg display="none" xmlns="http://www.w3.org/2000/svg">
  <symbol id="UNIVERSAL" viewBox="0 0 113 19">
    <path
      d="M7.26583 1.24984V3.36496L5.38612 3.72549V12.8589C5.38612 14.0126 5.69539 14.8779 6.31393 15.4548C6.9405 16.0236 7.79601 16.308 8.88047 16.308C9.98098 16.308 10.8445 16.0236 11.4711 15.4548C12.0977 14.8859 12.411 14.0207 12.411 12.8589V3.72549L10.5433 3.36496V1.24984H17.8091V3.36496L15.9294 3.72549V12.8589C15.9294 14.8218 15.2787 16.3361 13.9774 17.4016C12.6841 18.4672 10.9851 19 8.88047 19C6.78386 19 5.0889 18.4672 3.79559 17.4016C2.51031 16.3361 1.86767 14.8218 1.86767 12.8589V3.72549L0 3.36496V1.24984H7.26583Z"
      fill="white"
    />
    <path
      d="M18.749 16.6445L20.4359 16.284V8.22011L18.5682 7.85958V5.74447H23.7134L23.87 7.60721C24.3038 6.94223 24.838 6.42547 25.4726 6.05693C26.1072 5.68838 26.8181 5.50411 27.6054 5.50411C28.9228 5.50411 29.951 5.91672 30.69 6.74194C31.4291 7.56715 31.7986 8.86106 31.7986 10.6237V16.284L33.4855 16.6445V18.7476H26.7619V16.6445L28.2681 16.284V10.6357C28.2681 9.76239 28.0913 9.14548 27.7379 8.78495C27.3844 8.4164 26.8503 8.23213 26.1353 8.23213C25.6694 8.23213 25.2517 8.32827 24.8822 8.52056C24.5127 8.70483 24.2034 8.96922 23.9544 9.31373V16.284L25.3762 16.6445V18.7476H18.749V16.6445Z"
      fill="white"
    />
    <path
      d="M34.4977 16.6445L36.1966 16.284V8.22011L34.3169 7.85958V5.74447H39.7151V16.284L41.402 16.6445V18.7476H34.4977V16.6445ZM39.7151 2.63188H36.1966V0H39.7151V2.63188Z"
      fill="white"
    />
    <path
      d="M48.0895 7.85958L46.8604 8.08792L48.5835 13.9045L48.8124 15.1303H48.8847L49.1378 13.9045L50.8367 8.09994L49.5836 7.85958V5.74447H55.4999V7.85958L54.3672 8.03985L50.5235 18.7476H47.1617L43.3058 8.03985L42.1732 7.85958V5.74447H48.0895V7.85958Z"
      fill="white"
    />
    <path
      d="M62.7055 19C60.8258 19 59.3236 18.3991 58.199 17.1973C57.0744 15.9956 56.5121 14.4693 56.5121 12.6186V12.1379C56.5121 10.207 57.0422 8.6167 58.1026 7.36686C59.171 6.11701 60.6008 5.4961 62.3922 5.50411C64.1514 5.50411 65.517 6.03289 66.489 7.09045C67.461 8.14801 67.947 9.57812 67.947 11.3808V13.2916H60.163L60.1389 13.3637C60.2032 14.221 60.4884 14.926 60.9945 15.4788C61.5086 16.0316 62.2034 16.308 63.079 16.308C63.8582 16.308 64.5049 16.2319 65.019 16.0797C65.5331 15.9195 66.0954 15.6711 66.7059 15.3346L67.6578 17.4978C67.1196 17.9224 66.4207 18.2789 65.5612 18.5674C64.7097 18.8558 63.7578 19 62.7055 19ZM62.3922 8.2081C61.7415 8.2081 61.2274 8.45646 60.8499 8.95319C60.4723 9.44993 60.2394 10.1029 60.151 10.9121L60.1871 10.9722H64.5009V10.6597C64.5009 9.91461 64.3241 9.32174 63.9707 8.88109C63.6253 8.43243 63.0991 8.2081 62.3922 8.2081Z"
      fill="white"
    />
    <path
      d="M69.887 16.6445L71.5739 16.284V8.22011L69.7062 7.85958V5.74447H74.8514L75.008 7.64326C75.3132 6.97027 75.7069 6.4455 76.1889 6.06894C76.6708 5.69239 77.2291 5.50411 77.8637 5.50411C78.0485 5.50411 78.2413 5.52013 78.4421 5.55218C78.651 5.57622 78.8237 5.60826 78.9602 5.64832L78.5867 8.84503L77.1408 8.80898C76.6266 8.80898 76.2009 8.90913 75.8635 9.10942C75.5261 9.30972 75.2691 9.59414 75.0923 9.96268V16.284L76.7793 16.6445V18.7476H69.887V16.6445Z"
      fill="white"
    />
    <path
      d="M90.6482 10.2151H88.2865L87.913 8.59266C87.672 8.40038 87.3667 8.24014 86.9972 8.11195C86.6357 7.98377 86.2341 7.91967 85.7923 7.91967C85.1737 7.91967 84.6837 8.05988 84.3222 8.34029C83.9608 8.61269 83.78 8.9572 83.78 9.37381C83.78 9.76639 83.9527 10.0949 84.2981 10.3593C84.6436 10.6156 85.3344 10.844 86.3707 11.0443C87.9853 11.3647 89.1822 11.8374 89.9614 12.4624C90.7406 13.0793 91.1302 13.9325 91.1302 15.0221C91.1302 16.1919 90.6241 17.1493 89.612 17.8944C88.6078 18.6315 87.2824 19 85.6356 19C84.6315 19 83.7077 18.8558 82.8643 18.5674C82.0288 18.2709 81.2858 17.8503 80.6351 17.3055L80.599 14.3852H83.0571L83.539 16.0797C83.7479 16.256 84.0331 16.3882 84.3945 16.4763C84.756 16.5564 85.1336 16.5965 85.5272 16.5965C86.2421 16.5965 86.7844 16.4683 87.1539 16.2119C87.5314 15.9555 87.7202 15.607 87.7202 15.1664C87.7202 14.7818 87.5314 14.4493 87.1539 14.1689C86.7763 13.8885 86.0815 13.6401 85.0693 13.4238C83.535 13.1113 82.3742 12.6506 81.587 12.0417C80.8078 11.4248 80.4182 10.5876 80.4182 9.53004C80.4182 8.44044 80.8681 7.50306 81.7678 6.7179C82.6674 5.92473 83.9487 5.52815 85.6115 5.52815C86.6237 5.52815 87.5796 5.66435 88.4793 5.93675C89.387 6.20915 90.098 6.55766 90.6121 6.98229L90.6482 10.2151Z"
      fill="white"
    />
    <path
      d="M101.011 18.7476C100.914 18.5313 100.83 18.311 100.758 18.0867C100.685 17.8543 100.629 17.622 100.589 17.3896C100.171 17.8703 99.6612 18.2589 99.0588 18.5553C98.4643 18.8518 97.7815 19 97.0103 19C95.7331 19 94.7169 18.6555 93.9618 17.9665C93.2148 17.2694 92.8412 16.3241 92.8412 15.1303C92.8412 13.9125 93.3312 12.9711 94.3113 12.3061C95.2913 11.6412 96.7292 11.3087 98.625 11.3087H100.42V10.0348C100.42 9.40987 100.24 8.92515 99.8781 8.58064C99.5166 8.23614 98.9824 8.06388 98.2755 8.06388C97.8739 8.06388 97.5164 8.11195 97.2031 8.2081C96.8898 8.29623 96.6368 8.40438 96.444 8.53257L96.2151 9.92663H93.5642L93.5762 7.04238C94.2189 6.60974 94.9539 6.2452 95.7813 5.94877C96.6167 5.65233 97.5245 5.50411 98.5045 5.50411C100.119 5.50411 101.428 5.9007 102.433 6.69386C103.445 7.47902 103.951 8.60067 103.951 10.0588V15.4307C103.951 15.631 103.951 15.8193 103.951 15.9956C103.959 16.1718 103.975 16.3401 103.999 16.5003L105.071 16.6445V18.7476H101.011ZM97.9622 16.4042C98.4924 16.4042 98.9744 16.292 99.4082 16.0677C99.842 15.8353 100.179 15.5469 100.42 15.2024V13.2195H98.625C97.8779 13.2195 97.3116 13.3957 96.926 13.7483C96.5404 14.0928 96.3476 14.5094 96.3476 14.9981C96.3476 15.4388 96.4882 15.7833 96.7694 16.0316C97.0585 16.28 97.4562 16.4042 97.9622 16.4042Z"
      fill="white"
    />
    <path
      d="M105.903 2.11512V0H111.301V16.284L113 16.6445V18.7476H106.084V16.6445L107.783 16.284V2.47565L105.903 2.11512Z"
      fill="white"
    />
  </symbol>
</svg>
